# xmcd
#
# Track frame offsets:
#	150
#	15797
#	31191
#	48871
#	68403
#	82958
#	99089
#	117612
#	134095
#	149622
#	167022
#	185408
#
# Disc length: 2659 seconds
#
# Revision: 1
# Processed by: cddbd v1.4PL0 Copyright (c) Steve Scherf et al.
# Submitted via: audiograbber 1.82.00
#
DISCID=930a610c
DTITLE=Travis Tritt  - Strong Enough
DYEAR=2002
DGENRE=Country
TTITLE0=You Can't Count Me Out Yet
TTITLE1=Can't Tell Me Nothin'
TTITLE2=Strong Enough To Be Your Man
TTITLE3=Country Ain"t Country
TTITLE4=If You're Gonna Straighten Up
TTITLE5=Doesn't Anyone Hurt Any more
TTITLE6=You Really Wouldn't Want Me Th
TTITLE7=I Don't Ever Want To Her To Fe
TTITLE8=Time To Get Crazy
TTITLE9=Now I've Seen It All
TTITLE10=God Must Be A Woman
TTITLE11=I Can't Seem To Get Over You
EXTD=
EXTT0=
EXTT1=
EXTT2=
EXTT3=
EXTT4=
EXTT5=
EXTT6=
EXTT7=
EXTT8=
EXTT9=
EXTT10=
EXTT11=
PLAYORDER=
